<svg t="1620829574129" class="icon" viewBox="0 0 1158 1024" version="1.1" xmlns="http://www.w3.org/2000/svg" p-id="3736" width="48" height="48"><path d="M1118.315789 943.157895h-1077.894736a40.421053 40.421053 0 0 0 0 80.842105h1077.894736a40.421053 40.421053 0 0 0 0-80.842105zM525.473684 889.263158h107.789474a80.842105 80.842105 0 0 0 80.842105-80.842105V512a80.842105 80.842105 0 0 0-80.842105-80.842105h-107.789474a80.842105 80.842105 0 0 0-80.842105 80.842105v296.421053a80.842105 80.842105 0 0 0 80.842105 80.842105z m0-377.263158h107.789474v296.421053h-107.789474zM848.842105 889.263158h107.789474a80.842105 80.842105 0 0 0 80.842105-80.842105V323.368421a80.842105 80.842105 0 0 0-80.842105-80.842105h-107.789474a80.842105 80.842105 0 0 0-80.842105 80.842105v485.052632a80.842105 80.842105 0 0 0 80.842105 80.842105z m0-565.894737h107.789474v485.052632h-107.789474zM202.105263 889.263158h107.789474a80.842105 80.842105 0 0 0 80.842105-80.842105V80.842105a80.842105 80.842105 0 0 0-80.842105-80.842105h-107.789474a80.842105 80.842105 0 0 0-80.842105 80.842105v727.578948a80.842105 80.842105 0 0 0 80.842105 80.842105z m0-808.421053h107.789474v727.578948h-107.789474z" p-id="3737"></path></svg>