<svg t="1620829516057" class="icon" viewBox="0 0 1024 1024" version="1.1" xmlns="http://www.w3.org/2000/svg" p-id="2890" width="48" height="48"><path d="M396.8 404.48c5.12 5.12 12.8 7.68 17.92 7.68s12.8-2.56 17.92-7.68c10.24-10.24 10.24-25.6 0-35.84l-107.52-107.52c-10.24-10.24-25.6-10.24-35.84 0-10.24 10.24-10.24 25.6 0 35.84L396.8 404.48z" p-id="2891"></path><path d="M627.2 404.48l107.52-107.52c10.24-10.24 10.24-25.6 0-35.84-10.24-10.24-25.6-10.24-35.84 0L588.8 368.64c-10.24 10.24-10.24 25.6 0 35.84 5.12 5.12 12.8 7.68 17.92 7.68S622.08 409.6 627.2 404.48z" p-id="2892"></path><path d="M724.48 478.72c15.36 0 25.6-12.8 25.6-25.6s-12.8-25.6-25.6-25.6L309.76 427.52c-15.36 0-25.6 12.8-25.6 25.6s12.8 25.6 25.6 25.6l176.64 0 0 99.84-184.32 0c-15.36 0-25.6 12.8-25.6 25.6 0 15.36 12.8 25.6 25.6 25.6l184.32 0 0 156.16c0 15.36 12.8 25.6 25.6 25.6s25.6-12.8 25.6-25.6l0-156.16 179.2 0c15.36 0 25.6-12.8 25.6-25.6 0-15.36-12.8-25.6-25.6-25.6l-179.2 0 0-99.84L724.48 478.72z" p-id="2893"></path><path d="M69.12 491.52c15.36 0 25.6-12.8 25.6-25.6l0 0C117.76 256 296.96 92.16 512 92.16c207.36 0 378.88 151.04 412.16 345.6 0 0 2.56 15.36 12.8 23.04 5.12 2.56 7.68 2.56 12.8 2.56 10.24 0 17.92-5.12 23.04-12.8 2.56-5.12 61.44-110.08 46.08-215.04-2.56-15.36-15.36-23.04-28.16-23.04-15.36 2.56-23.04 15.36-23.04 28.16 5.12 38.4-2.56 79.36-12.8 112.64C893.44 171.52 719.36 38.4 512 38.4c-245.76 0-445.44 186.88-468.48 424.96C43.52 478.72 53.76 491.52 69.12 491.52z" p-id="2894"></path><path d="M954.88 532.48c-15.36 0-25.6 12.8-25.6 25.6l0 0C906.24 768 727.04 931.84 512 931.84c-207.36 0-378.88-151.04-412.16-345.6 0 0-2.56-15.36-12.8-23.04-5.12-2.56-7.68-2.56-12.8-2.56-10.24 0-17.92 5.12-23.04 12.8-2.56 5.12-61.44 110.08-46.08 215.04 2.56 15.36 15.36 23.04 28.16 23.04 15.36-2.56 23.04-15.36 23.04-28.16-5.12-38.4 2.56-79.36 12.8-112.64 64 184.32 238.08 317.44 445.44 317.44 245.76 0 445.44-186.88 468.48-424.96C980.48 545.28 970.24 532.48 954.88 532.48z" p-id="2895"></path></svg>